<?xml version="1.0" encoding="UTF-8" standalone="no"?>
<!DOCTYPE svg PUBLIC "-//W3C//DTD SVG 1.1//EN"
 "http://www.w3.org/Graphics/SVG/1.1/DTD/svg11.dtd">
<!-- Generated by graphviz version 2.40.1 (20161225.0304)
 -->
<!-- Title: UmlClassDiagram Pages: 1 -->
<svg width="3365pt" height="1671pt"
 viewBox="0.00 0.00 3365.27 1671.40" xmlns="http://www.w3.org/2000/svg" xmlns:xlink="http://www.w3.org/1999/xlink">
<g id="graph0" class="graph" transform="scale(1 1) rotate(0) translate(4 1667.4)">
<title>UmlClassDiagram</title>
<polygon fill="#ffffff" stroke="transparent" points="-4,4 -4,-1667.4 3361.272,-1667.4 3361.272,4 -4,4"/>
<!-- 0 -->
<g id="node1" class="node">
<title>0</title>
<polygon fill="#f2f2f2" stroke="#000000" points="230.1417,-1538.1 230.1417,-1662.9 448.2863,-1662.9 448.2863,-1538.1 230.1417,-1538.1"/>
<text text-anchor="middle" x="339.214" y="-1646.3" font-family="Times,serif" font-size="14.00" fill="#000000">&lt;&lt;Abstract&gt;&gt;</text>
<text text-anchor="middle" x="339.214" y="-1629.5" font-family="Times,serif" font-size="14.00" fill="#000000">Context</text>
<polyline fill="none" stroke="#000000" points="230.1417,-1621.3 448.2863,-1621.3 "/>
<text text-anchor="middle" x="339.214" y="-1604.7" font-family="Times,serif" font-size="14.00" fill="#000000"> </text>
<polyline fill="none" stroke="#000000" points="230.1417,-1596.5 448.2863,-1596.5 "/>
<text text-anchor="start" x="238.1417" y="-1579.9" font-family="Times,serif" font-size="14.00" fill="#000000">Internal:</text>
<text text-anchor="start" x="238.1417" y="-1563.1" font-family="Times,serif" font-size="14.00" fill="#000000"> &#160;&#160;&#160;_msgSender(): (payable: address)</text>
<text text-anchor="start" x="238.1417" y="-1546.3" font-family="Times,serif" font-size="14.00" fill="#000000"> &#160;&#160;&#160;_msgData(): bytes</text>
</g>
<!-- 1 -->
<g id="node2" class="node">
<title>1</title>
<polygon fill="#f2f2f2" stroke="#000000" points="419.777,-1241.9 419.777,-1450.7 904.651,-1450.7 904.651,-1241.9 419.777,-1241.9"/>
<text text-anchor="middle" x="662.214" y="-1434.1" font-family="Times,serif" font-size="14.00" fill="#000000">&lt;&lt;Abstract&gt;&gt;</text>
<text text-anchor="middle" x="662.214" y="-1417.3" font-family="Times,serif" font-size="14.00" fill="#000000">Ownable</text>
<polyline fill="none" stroke="#000000" points="419.777,-1409.1 904.651,-1409.1 "/>
<text text-anchor="start" x="427.777" y="-1392.5" font-family="Times,serif" font-size="14.00" fill="#000000">Private:</text>
<text text-anchor="start" x="427.777" y="-1375.7" font-family="Times,serif" font-size="14.00" fill="#000000"> &#160;&#160;_owner: address</text>
<polyline fill="none" stroke="#000000" points="419.777,-1367.5 904.651,-1367.5 "/>
<text text-anchor="start" x="427.777" y="-1350.9" font-family="Times,serif" font-size="14.00" fill="#000000">Public:</text>
<text text-anchor="start" x="427.777" y="-1334.1" font-family="Times,serif" font-size="14.00" fill="#000000"> &#160;&#160;&#160;&lt;&lt;event&gt;&gt; OwnershipTransferred(previousOwner: address, newOwner: address)</text>
<text text-anchor="start" x="427.777" y="-1317.3" font-family="Times,serif" font-size="14.00" fill="#000000"> &#160;&#160;&#160;&lt;&lt;modifier&gt;&gt; onlyOwner()</text>
<text text-anchor="start" x="427.777" y="-1300.5" font-family="Times,serif" font-size="14.00" fill="#000000"> &#160;&#160;&#160;constructor()</text>
<text text-anchor="start" x="427.777" y="-1283.7" font-family="Times,serif" font-size="14.00" fill="#000000"> &#160;&#160;&#160;owner(): address</text>
<text text-anchor="start" x="427.777" y="-1266.9" font-family="Times,serif" font-size="14.00" fill="#000000"> &#160;&#160;&#160;renounceOwnership()</text>
<text text-anchor="start" x="427.777" y="-1250.1" font-family="Times,serif" font-size="14.00" fill="#000000"> &#160;&#160;&#160;transferOwnership(newOwner: address)</text>
</g>
<!-- 1&#45;&gt;0 -->
<g id="edge1" class="edge">
<title>1&#45;&gt;0</title>
<path fill="none" stroke="#000000" d="M529.4393,-1450.7933C500.5173,-1473.5548 470.3253,-1497.3158 442.7362,-1519.0284"/>
<polygon fill="none" stroke="#000000" points="435.8336,-1511.099 418.7524,-1537.9035 448.8209,-1527.6014 435.8336,-1511.099"/>
</g>
<!-- 2 -->
<g id="node3" class="node">
<title>2</title>
<polygon fill="#f2f2f2" stroke="#000000" points="44.5176,-1191.5 44.5176,-1501.1 401.9104,-1501.1 401.9104,-1191.5 44.5176,-1191.5"/>
<text text-anchor="middle" x="223.214" y="-1484.5" font-family="Times,serif" font-size="14.00" fill="#000000">&lt;&lt;Library&gt;&gt;</text>
<text text-anchor="middle" x="223.214" y="-1467.7" font-family="Times,serif" font-size="14.00" fill="#000000">SafeMath</text>
<polyline fill="none" stroke="#000000" points="44.5176,-1459.5 401.9104,-1459.5 "/>
<text text-anchor="middle" x="223.214" y="-1442.9" font-family="Times,serif" font-size="14.00" fill="#000000"> </text>
<polyline fill="none" stroke="#000000" points="44.5176,-1434.7 401.9104,-1434.7 "/>
<text text-anchor="start" x="52.5176" y="-1418.1" font-family="Times,serif" font-size="14.00" fill="#000000">Internal:</text>
<text text-anchor="start" x="52.5176" y="-1401.3" font-family="Times,serif" font-size="14.00" fill="#000000"> &#160;&#160;&#160;tryAdd(a: uint256, b: uint256): (bool, uint256)</text>
<text text-anchor="start" x="52.5176" y="-1384.5" font-family="Times,serif" font-size="14.00" fill="#000000"> &#160;&#160;&#160;trySub(a: uint256, b: uint256): (bool, uint256)</text>
<text text-anchor="start" x="52.5176" y="-1367.7" font-family="Times,serif" font-size="14.00" fill="#000000"> &#160;&#160;&#160;tryMul(a: uint256, b: uint256): (bool, uint256)</text>
<text text-anchor="start" x="52.5176" y="-1350.9" font-family="Times,serif" font-size="14.00" fill="#000000"> &#160;&#160;&#160;tryDiv(a: uint256, b: uint256): (bool, uint256)</text>
<text text-anchor="start" x="52.5176" y="-1334.1" font-family="Times,serif" font-size="14.00" fill="#000000"> &#160;&#160;&#160;tryMod(a: uint256, b: uint256): (bool, uint256)</text>
<text text-anchor="start" x="52.5176" y="-1317.3" font-family="Times,serif" font-size="14.00" fill="#000000"> &#160;&#160;&#160;add(a: uint256, b: uint256): uint256</text>
<text text-anchor="start" x="52.5176" y="-1300.5" font-family="Times,serif" font-size="14.00" fill="#000000"> &#160;&#160;&#160;sub(a: uint256, b: uint256): uint256</text>
<text text-anchor="start" x="52.5176" y="-1283.7" font-family="Times,serif" font-size="14.00" fill="#000000"> &#160;&#160;&#160;mul(a: uint256, b: uint256): uint256</text>
<text text-anchor="start" x="52.5176" y="-1266.9" font-family="Times,serif" font-size="14.00" fill="#000000"> &#160;&#160;&#160;div(a: uint256, b: uint256): uint256</text>
<text text-anchor="start" x="52.5176" y="-1250.1" font-family="Times,serif" font-size="14.00" fill="#000000"> &#160;&#160;&#160;mod(a: uint256, b: uint256): uint256</text>
<text text-anchor="start" x="52.5176" y="-1233.3" font-family="Times,serif" font-size="14.00" fill="#000000"> &#160;&#160;&#160;sub(a: uint256, b: uint256, errorMessage: string): uint256</text>
<text text-anchor="start" x="52.5176" y="-1216.5" font-family="Times,serif" font-size="14.00" fill="#000000"> &#160;&#160;&#160;div(a: uint256, b: uint256, errorMessage: string): uint256</text>
<text text-anchor="start" x="52.5176" y="-1199.7" font-family="Times,serif" font-size="14.00" fill="#000000"> &#160;&#160;&#160;mod(a: uint256, b: uint256, errorMessage: string): uint256</text>
</g>
<!-- 3 -->
<g id="node4" class="node">
<title>3</title>
<polygon fill="#f2f2f2" stroke="#000000" points="922.9141,-1191.5 922.9141,-1501.1 1361.5139,-1501.1 1361.5139,-1191.5 922.9141,-1191.5"/>
<text text-anchor="middle" x="1142.214" y="-1484.5" font-family="Times,serif" font-size="14.00" fill="#000000">&lt;&lt;Interface&gt;&gt;</text>
<text text-anchor="middle" x="1142.214" y="-1467.7" font-family="Times,serif" font-size="14.00" fill="#000000">IBEP20</text>
<polyline fill="none" stroke="#000000" points="922.9141,-1459.5 1361.5139,-1459.5 "/>
<text text-anchor="middle" x="1142.214" y="-1442.9" font-family="Times,serif" font-size="14.00" fill="#000000"> </text>
<polyline fill="none" stroke="#000000" points="922.9141,-1434.7 1361.5139,-1434.7 "/>
<text text-anchor="start" x="930.9141" y="-1418.1" font-family="Times,serif" font-size="14.00" fill="#000000">External:</text>
<text text-anchor="start" x="930.9141" y="-1401.3" font-family="Times,serif" font-size="14.00" fill="#000000"> &#160;&#160;&#160;&#160;name(): string</text>
<text text-anchor="start" x="930.9141" y="-1384.5" font-family="Times,serif" font-size="14.00" fill="#000000"> &#160;&#160;&#160;&#160;symbol(): string</text>
<text text-anchor="start" x="930.9141" y="-1367.7" font-family="Times,serif" font-size="14.00" fill="#000000"> &#160;&#160;&#160;&#160;decimals(): uint8</text>
<text text-anchor="start" x="930.9141" y="-1350.9" font-family="Times,serif" font-size="14.00" fill="#000000"> &#160;&#160;&#160;&#160;totalSupply(): uint256</text>
<text text-anchor="start" x="930.9141" y="-1334.1" font-family="Times,serif" font-size="14.00" fill="#000000"> &#160;&#160;&#160;&#160;balanceOf(account: address): uint256</text>
<text text-anchor="start" x="930.9141" y="-1317.3" font-family="Times,serif" font-size="14.00" fill="#000000"> &#160;&#160;&#160;&#160;getOwner(): address</text>
<text text-anchor="start" x="930.9141" y="-1300.5" font-family="Times,serif" font-size="14.00" fill="#000000"> &#160;&#160;&#160;&#160;transfer(recipient: address, amount: uint256): bool</text>
<text text-anchor="start" x="930.9141" y="-1283.7" font-family="Times,serif" font-size="14.00" fill="#000000"> &#160;&#160;&#160;&#160;transferFrom(sender: address, recipient: address, amount: uint256): bool</text>
<text text-anchor="start" x="930.9141" y="-1266.9" font-family="Times,serif" font-size="14.00" fill="#000000"> &#160;&#160;&#160;&#160;approve(spender: address, amount: uint256): bool</text>
<text text-anchor="start" x="930.9141" y="-1250.1" font-family="Times,serif" font-size="14.00" fill="#000000"> &#160;&#160;&#160;&#160;allowance(_owner: address, spender: address): uint256</text>
<text text-anchor="start" x="930.9141" y="-1233.3" font-family="Times,serif" font-size="14.00" fill="#000000">Public:</text>
<text text-anchor="start" x="930.9141" y="-1216.5" font-family="Times,serif" font-size="14.00" fill="#000000"> &#160;&#160;&#160;&lt;&lt;event&gt;&gt; Transfer(from: address, to: address, value: uint256)</text>
<text text-anchor="start" x="930.9141" y="-1199.7" font-family="Times,serif" font-size="14.00" fill="#000000"> &#160;&#160;&#160;&lt;&lt;event&gt;&gt; Approval(owner: address, spender: address, value: uint256)</text>
</g>
<!-- 4 -->
<g id="node5" class="node">
<title>4</title>
<polygon fill="#f2f2f2" stroke="#000000" points="335.6641,-643.3 335.6641,-1154.5 770.7639,-1154.5 770.7639,-643.3 335.6641,-643.3"/>
<text text-anchor="middle" x="553.214" y="-1137.9" font-family="Times,serif" font-size="14.00" fill="#000000">BEP20</text>
<polyline fill="none" stroke="#000000" points="335.6641,-1129.7 770.7639,-1129.7 "/>
<text text-anchor="start" x="343.6641" y="-1113.1" font-family="Times,serif" font-size="14.00" fill="#000000">Private:</text>
<text text-anchor="start" x="343.6641" y="-1096.3" font-family="Times,serif" font-size="14.00" fill="#000000"> &#160;&#160;_balances: mapping(address=&gt;uint256)</text>
<text text-anchor="start" x="343.6641" y="-1079.5" font-family="Times,serif" font-size="14.00" fill="#000000"> &#160;&#160;_allowances: mapping(address=&gt;mapping(address=&gt;uint256))</text>
<text text-anchor="start" x="343.6641" y="-1062.7" font-family="Times,serif" font-size="14.00" fill="#000000"> &#160;&#160;_totalSupply: uint256</text>
<text text-anchor="start" x="343.6641" y="-1045.9" font-family="Times,serif" font-size="14.00" fill="#000000"> &#160;&#160;_name: string</text>
<text text-anchor="start" x="343.6641" y="-1029.1" font-family="Times,serif" font-size="14.00" fill="#000000"> &#160;&#160;_symbol: string</text>
<text text-anchor="start" x="343.6641" y="-1012.3" font-family="Times,serif" font-size="14.00" fill="#000000"> &#160;&#160;_decimals: uint8</text>
<polyline fill="none" stroke="#000000" points="335.6641,-1004.1 770.7639,-1004.1 "/>
<text text-anchor="start" x="343.6641" y="-987.5" font-family="Times,serif" font-size="14.00" fill="#000000">Internal:</text>
<text text-anchor="start" x="343.6641" y="-970.7" font-family="Times,serif" font-size="14.00" fill="#000000"> &#160;&#160;&#160;_transfer(sender: address, recipient: address, amount: uint256)</text>
<text text-anchor="start" x="343.6641" y="-953.9" font-family="Times,serif" font-size="14.00" fill="#000000"> &#160;&#160;&#160;_mint(account: address, amount: uint256)</text>
<text text-anchor="start" x="343.6641" y="-937.1" font-family="Times,serif" font-size="14.00" fill="#000000"> &#160;&#160;&#160;_burn(account: address, amount: uint256)</text>
<text text-anchor="start" x="343.6641" y="-920.3" font-family="Times,serif" font-size="14.00" fill="#000000"> &#160;&#160;&#160;_approve(owner: address, spender: address, amount: uint256)</text>
<text text-anchor="start" x="343.6641" y="-903.5" font-family="Times,serif" font-size="14.00" fill="#000000"> &#160;&#160;&#160;_setupDecimals(decimals_: uint8)</text>
<text text-anchor="start" x="343.6641" y="-886.7" font-family="Times,serif" font-size="14.00" fill="#000000"> &#160;&#160;&#160;_beforeTokenTransfer(from: address, to: address, amount: uint256)</text>
<text text-anchor="start" x="343.6641" y="-869.9" font-family="Times,serif" font-size="14.00" fill="#000000">Public:</text>
<text text-anchor="start" x="343.6641" y="-853.1" font-family="Times,serif" font-size="14.00" fill="#000000"> &#160;&#160;&#160;constructor(name_: string, symbol_: string)</text>
<text text-anchor="start" x="343.6641" y="-836.3" font-family="Times,serif" font-size="14.00" fill="#000000"> &#160;&#160;&#160;name(): string</text>
<text text-anchor="start" x="343.6641" y="-819.5" font-family="Times,serif" font-size="14.00" fill="#000000"> &#160;&#160;&#160;symbol(): string</text>
<text text-anchor="start" x="343.6641" y="-802.7" font-family="Times,serif" font-size="14.00" fill="#000000"> &#160;&#160;&#160;decimals(): uint8</text>
<text text-anchor="start" x="343.6641" y="-785.9" font-family="Times,serif" font-size="14.00" fill="#000000"> &#160;&#160;&#160;totalSupply(): uint256</text>
<text text-anchor="start" x="343.6641" y="-769.1" font-family="Times,serif" font-size="14.00" fill="#000000"> &#160;&#160;&#160;balanceOf(account: address): uint256</text>
<text text-anchor="start" x="343.6641" y="-752.3" font-family="Times,serif" font-size="14.00" fill="#000000"> &#160;&#160;&#160;getOwner(): address</text>
<text text-anchor="start" x="343.6641" y="-735.5" font-family="Times,serif" font-size="14.00" fill="#000000"> &#160;&#160;&#160;transfer(recipient: address, amount: uint256): bool</text>
<text text-anchor="start" x="343.6641" y="-718.7" font-family="Times,serif" font-size="14.00" fill="#000000"> &#160;&#160;&#160;transferFrom(sender: address, recipient: address, amount: uint256): bool</text>
<text text-anchor="start" x="343.6641" y="-701.9" font-family="Times,serif" font-size="14.00" fill="#000000"> &#160;&#160;&#160;approve(spender: address, amount: uint256): bool</text>
<text text-anchor="start" x="343.6641" y="-685.1" font-family="Times,serif" font-size="14.00" fill="#000000"> &#160;&#160;&#160;allowance(owner: address, spender: address): uint256</text>
<text text-anchor="start" x="343.6641" y="-668.3" font-family="Times,serif" font-size="14.00" fill="#000000"> &#160;&#160;&#160;increaseAllowance(spender: address, addedValue: uint256): bool</text>
<text text-anchor="start" x="343.6641" y="-651.5" font-family="Times,serif" font-size="14.00" fill="#000000"> &#160;&#160;&#160;decreaseAllowance(spender: address, subtractedValue: uint256): bool</text>
</g>
<!-- 4&#45;&gt;1 -->
<g id="edge2" class="edge">
<title>4&#45;&gt;1</title>
<path fill="none" stroke="#000000" d="M615.5139,-1154.6151C620.3533,-1174.479 625.1089,-1193.999 629.6239,-1212.531"/>
<polygon fill="none" stroke="#000000" points="619.4274,-1215.0377 636.7303,-1241.6997 639.8306,-1210.0668 619.4274,-1215.0377"/>
</g>
<!-- 4&#45;&gt;2 -->
<g id="edge4" class="edge">
<title>4&#45;&gt;2</title>
<path fill="none" stroke="#000000" stroke-dasharray="5,2" d="M364.5998,-1154.6151C357.509,-1164.2286 350.4775,-1173.7615 343.5594,-1183.1409"/>
<polygon fill="#000000" stroke="#000000" points="340.6295,-1181.2167 337.5103,-1191.342 346.2629,-1185.3719 340.6295,-1181.2167"/>
</g>
<!-- 4&#45;&gt;3 -->
<g id="edge3" class="edge">
<title>4&#45;&gt;3</title>
<path fill="none" stroke="#000000" stroke-dasharray="5,2" d="M770.835,-1117.766C787.9904,-1131.0955 805.5334,-1143.6736 823.214,-1155 851.413,-1173.0645 867.164,-1172.5873 895.1485,-1183.399"/>
<polygon fill="none" stroke="#000000" points="891.149,-1193.1176 922.7866,-1196.169 899.9572,-1174.0541 891.149,-1193.1176"/>
</g>
<!-- 5 -->
<g id="node6" class="node">
<title>5</title>
<polygon fill="#f2f2f2" stroke="#000000" points="384.6817,-330.3 384.6817,-555.9 641.7463,-555.9 641.7463,-330.3 384.6817,-330.3"/>
<text text-anchor="middle" x="513.214" y="-539.3" font-family="Times,serif" font-size="14.00" fill="#000000">&lt;&lt;Abstract&gt;&gt;</text>
<text text-anchor="middle" x="513.214" y="-522.5" font-family="Times,serif" font-size="14.00" fill="#000000">BEP20Mintable</text>
<polyline fill="none" stroke="#000000" points="384.6817,-514.3 641.7463,-514.3 "/>
<text text-anchor="start" x="392.6817" y="-497.7" font-family="Times,serif" font-size="14.00" fill="#000000">Private:</text>
<text text-anchor="start" x="392.6817" y="-480.9" font-family="Times,serif" font-size="14.00" fill="#000000"> &#160;&#160;_mintingFinished: bool</text>
<polyline fill="none" stroke="#000000" points="384.6817,-472.7 641.7463,-472.7 "/>
<text text-anchor="start" x="392.6817" y="-456.1" font-family="Times,serif" font-size="14.00" fill="#000000">Internal:</text>
<text text-anchor="start" x="392.6817" y="-439.3" font-family="Times,serif" font-size="14.00" fill="#000000"> &#160;&#160;&#160;_finishMinting()</text>
<text text-anchor="start" x="392.6817" y="-422.5" font-family="Times,serif" font-size="14.00" fill="#000000">Public:</text>
<text text-anchor="start" x="392.6817" y="-405.7" font-family="Times,serif" font-size="14.00" fill="#000000"> &#160;&#160;&#160;&lt;&lt;event&gt;&gt; MintFinished()</text>
<text text-anchor="start" x="392.6817" y="-388.9" font-family="Times,serif" font-size="14.00" fill="#000000"> &#160;&#160;&#160;&lt;&lt;modifier&gt;&gt; canMint()</text>
<text text-anchor="start" x="392.6817" y="-372.1" font-family="Times,serif" font-size="14.00" fill="#000000"> &#160;&#160;&#160;mintingFinished(): bool</text>
<text text-anchor="start" x="392.6817" y="-355.3" font-family="Times,serif" font-size="14.00" fill="#000000"> &#160;&#160;&#160;mint(account: address, amount: uint256)</text>
<text text-anchor="start" x="392.6817" y="-338.5" font-family="Times,serif" font-size="14.00" fill="#000000"> &#160;&#160;&#160;finishMinting()</text>
</g>
<!-- 5&#45;&gt;4 -->
<g id="edge5" class="edge">
<title>5&#45;&gt;4</title>
<path fill="none" stroke="#000000" d="M523.1273,-556.0624C524.7037,-574.0249 526.3933,-593.2778 528.1381,-613.1596"/>
<polygon fill="none" stroke="#000000" points="517.6912,-614.2256 530.7737,-643.1928 538.6108,-612.3897 517.6912,-614.2256"/>
</g>
<!-- 6 -->
<g id="node7" class="node">
<title>6</title>
<polygon fill="#f2f2f2" stroke="#000000" points="79.5204,-380.7 79.5204,-505.5 366.9076,-505.5 366.9076,-380.7 79.5204,-380.7"/>
<text text-anchor="middle" x="223.214" y="-488.9" font-family="Times,serif" font-size="14.00" fill="#000000">&lt;&lt;Abstract&gt;&gt;</text>
<text text-anchor="middle" x="223.214" y="-472.1" font-family="Times,serif" font-size="14.00" fill="#000000">BEP20Burnable</text>
<polyline fill="none" stroke="#000000" points="79.5204,-463.9 366.9076,-463.9 "/>
<text text-anchor="middle" x="223.214" y="-447.3" font-family="Times,serif" font-size="14.00" fill="#000000"> </text>
<polyline fill="none" stroke="#000000" points="79.5204,-439.1 366.9076,-439.1 "/>
<text text-anchor="start" x="87.5204" y="-422.5" font-family="Times,serif" font-size="14.00" fill="#000000">Public:</text>
<text text-anchor="start" x="87.5204" y="-405.7" font-family="Times,serif" font-size="14.00" fill="#000000"> &#160;&#160;&#160;burn(amount: uint256)</text>
<text text-anchor="start" x="87.5204" y="-388.9" font-family="Times,serif" font-size="14.00" fill="#000000"> &#160;&#160;&#160;burnFrom(account: address, amount: uint256)</text>
</g>
<!-- 6&#45;&gt;0 -->
<g id="edge6" class="edge">
<title>6&#45;&gt;0</title>
<path fill="none" stroke="#000000" d="M200.3434,-505.8216C128.3252,-708.1703 -82.2103,-1339.9164 35.214,-1501.6 55.8322,-1529.9896 130.2398,-1554.4612 200.2744,-1571.9598"/>
<polygon fill="none" stroke="#000000" points="198.2336,-1582.2676 229.852,-1579.0233 203.1116,-1561.842 198.2336,-1582.2676"/>
</g>
<!-- 6&#45;&gt;2 -->
<g id="edge8" class="edge">
<title>6&#45;&gt;2</title>
<path fill="none" stroke="#000000" stroke-dasharray="5,2" d="M223.214,-505.5369C223.214,-643.4634 223.214,-977.9577 223.214,-1181.0156"/>
<polygon fill="#000000" stroke="#000000" points="219.7141,-1181.1856 223.214,-1191.1856 226.7141,-1181.1857 219.7141,-1181.1856"/>
</g>
<!-- 6&#45;&gt;4 -->
<g id="edge7" class="edge">
<title>6&#45;&gt;4</title>
<path fill="none" stroke="#000000" d="M268.4072,-505.5213C290.83,-536.492 319.6573,-576.3087 350.3311,-618.6757"/>
<polygon fill="none" stroke="#000000" points="341.9511,-625.0059 368.0492,-643.1481 358.961,-612.6906 341.9511,-625.0059"/>
</g>
<!-- 7 -->
<g id="node8" class="node">
<title>7</title>
<polygon fill="#f2f2f2" stroke="#000000" points="1410.7963,-1292.3 1410.7963,-1400.3 1687.6317,-1400.3 1687.6317,-1292.3 1410.7963,-1292.3"/>
<text text-anchor="middle" x="1549.214" y="-1383.7" font-family="Times,serif" font-size="14.00" fill="#000000">&lt;&lt;Interface&gt;&gt;</text>
<text text-anchor="middle" x="1549.214" y="-1366.9" font-family="Times,serif" font-size="14.00" fill="#000000">IERC165</text>
<polyline fill="none" stroke="#000000" points="1410.7963,-1358.7 1687.6317,-1358.7 "/>
<text text-anchor="middle" x="1549.214" y="-1342.1" font-family="Times,serif" font-size="14.00" fill="#000000"> </text>
<polyline fill="none" stroke="#000000" points="1410.7963,-1333.9 1687.6317,-1333.9 "/>
<text text-anchor="start" x="1418.7963" y="-1317.3" font-family="Times,serif" font-size="14.00" fill="#000000">External:</text>
<text text-anchor="start" x="1418.7963" y="-1300.5" font-family="Times,serif" font-size="14.00" fill="#000000"> &#160;&#160;&#160;&#160;supportsInterface(interfaceId: bytes4): bool</text>
</g>
<!-- 8 -->
<g id="node9" class="node">
<title>8</title>
<polygon fill="#f2f2f2" stroke="#000000" points="865.5645,-802.9 865.5645,-994.9 1418.8635,-994.9 1418.8635,-802.9 865.5645,-802.9"/>
<text text-anchor="middle" x="1142.214" y="-978.3" font-family="Times,serif" font-size="14.00" fill="#000000">&lt;&lt;Interface&gt;&gt;</text>
<text text-anchor="middle" x="1142.214" y="-961.5" font-family="Times,serif" font-size="14.00" fill="#000000">IBEP20Operable</text>
<polyline fill="none" stroke="#000000" points="865.5645,-953.3 1418.8635,-953.3 "/>
<text text-anchor="middle" x="1142.214" y="-936.7" font-family="Times,serif" font-size="14.00" fill="#000000"> </text>
<polyline fill="none" stroke="#000000" points="865.5645,-928.5 1418.8635,-928.5 "/>
<text text-anchor="start" x="873.5645" y="-911.9" font-family="Times,serif" font-size="14.00" fill="#000000">External:</text>
<text text-anchor="start" x="873.5645" y="-895.1" font-family="Times,serif" font-size="14.00" fill="#000000"> &#160;&#160;&#160;&#160;transferAndCall(recipient: address, amount: uint256): bool</text>
<text text-anchor="start" x="873.5645" y="-878.3" font-family="Times,serif" font-size="14.00" fill="#000000"> &#160;&#160;&#160;&#160;transferAndCall(recipient: address, amount: uint256, data: bytes): bool</text>
<text text-anchor="start" x="873.5645" y="-861.5" font-family="Times,serif" font-size="14.00" fill="#000000"> &#160;&#160;&#160;&#160;transferFromAndCall(sender: address, recipient: address, amount: uint256): bool</text>
<text text-anchor="start" x="873.5645" y="-844.7" font-family="Times,serif" font-size="14.00" fill="#000000"> &#160;&#160;&#160;&#160;transferFromAndCall(sender: address, recipient: address, amount: uint256, data: bytes): bool</text>
<text text-anchor="start" x="873.5645" y="-827.9" font-family="Times,serif" font-size="14.00" fill="#000000"> &#160;&#160;&#160;&#160;approveAndCall(spender: address, amount: uint256): bool</text>
<text text-anchor="start" x="873.5645" y="-811.1" font-family="Times,serif" font-size="14.00" fill="#000000"> &#160;&#160;&#160;&#160;approveAndCall(spender: address, amount: uint256, data: bytes): bool</text>
</g>
<!-- 8&#45;&gt;3 -->
<g id="edge9" class="edge">
<title>8&#45;&gt;3</title>
<path fill="none" stroke="#000000" stroke-dasharray="5,2" d="M1142.214,-995.1533C1142.214,-1043.5906 1142.214,-1103.991 1142.214,-1160.9682"/>
<polygon fill="none" stroke="#000000" points="1131.7141,-1161.2676 1142.214,-1191.2676 1152.7141,-1161.2676 1131.7141,-1161.2676"/>
</g>
<!-- 8&#45;&gt;7 -->
<g id="edge10" class="edge">
<title>8&#45;&gt;7</title>
<path fill="none" stroke="#000000" stroke-dasharray="5,2" d="M1229.7757,-995.1533C1304.46,-1077.251 1410.408,-1193.7157 1479.4674,-1269.6301"/>
<polygon fill="none" stroke="#000000" points="1472.1184,-1277.1553 1500.073,-1292.2812 1487.6524,-1263.024 1472.1184,-1277.1553"/>
</g>
<!-- 9 -->
<g id="node10" class="node">
<title>9</title>
<polygon fill="#f2f2f2" stroke="#000000" points="1741.4151,-844.9 1741.4151,-952.9 2297.0129,-952.9 2297.0129,-844.9 1741.4151,-844.9"/>
<text text-anchor="middle" x="2019.214" y="-936.3" font-family="Times,serif" font-size="14.00" fill="#000000">&lt;&lt;Interface&gt;&gt;</text>
<text text-anchor="middle" x="2019.214" y="-919.5" font-family="Times,serif" font-size="14.00" fill="#000000">IBEP20OperableReceiver</text>
<polyline fill="none" stroke="#000000" points="1741.4151,-911.3 2297.0129,-911.3 "/>
<text text-anchor="middle" x="2019.214" y="-894.7" font-family="Times,serif" font-size="14.00" fill="#000000"> </text>
<polyline fill="none" stroke="#000000" points="1741.4151,-886.5 2297.0129,-886.5 "/>
<text text-anchor="start" x="1749.4151" y="-869.9" font-family="Times,serif" font-size="14.00" fill="#000000">External:</text>
<text text-anchor="start" x="1749.4151" y="-853.1" font-family="Times,serif" font-size="14.00" fill="#000000"> &#160;&#160;&#160;&#160;onTransferReceived(operator: address, sender: address, amount: uint256, data: bytes): bytes4</text>
</g>
<!-- 10 -->
<g id="node11" class="node">
<title>10</title>
<polygon fill="#f2f2f2" stroke="#000000" points="2315.1883,-844.9 2315.1883,-952.9 2773.2397,-952.9 2773.2397,-844.9 2315.1883,-844.9"/>
<text text-anchor="middle" x="2544.214" y="-936.3" font-family="Times,serif" font-size="14.00" fill="#000000">&lt;&lt;Interface&gt;&gt;</text>
<text text-anchor="middle" x="2544.214" y="-919.5" font-family="Times,serif" font-size="14.00" fill="#000000">IBEP20OperableSpender</text>
<polyline fill="none" stroke="#000000" points="2315.1883,-911.3 2773.2397,-911.3 "/>
<text text-anchor="middle" x="2544.214" y="-894.7" font-family="Times,serif" font-size="14.00" fill="#000000"> </text>
<polyline fill="none" stroke="#000000" points="2315.1883,-886.5 2773.2397,-886.5 "/>
<text text-anchor="start" x="2323.1883" y="-869.9" font-family="Times,serif" font-size="14.00" fill="#000000">External:</text>
<text text-anchor="start" x="2323.1883" y="-853.1" font-family="Times,serif" font-size="14.00" fill="#000000"> &#160;&#160;&#160;&#160;onApprovalReceived(sender: address, amount: uint256, data: bytes): bytes4</text>
</g>
<!-- 11 -->
<g id="node12" class="node">
<title>11</title>
<polygon fill="#f2f2f2" stroke="#000000" points="2791.156,-752.5 2791.156,-1045.3 3357.272,-1045.3 3357.272,-752.5 2791.156,-752.5"/>
<text text-anchor="middle" x="3074.214" y="-1028.7" font-family="Times,serif" font-size="14.00" fill="#000000">&lt;&lt;Library&gt;&gt;</text>
<text text-anchor="middle" x="3074.214" y="-1011.9" font-family="Times,serif" font-size="14.00" fill="#000000">Address</text>
<polyline fill="none" stroke="#000000" points="2791.156,-1003.7 3357.272,-1003.7 "/>
<text text-anchor="middle" x="3074.214" y="-987.1" font-family="Times,serif" font-size="14.00" fill="#000000"> </text>
<polyline fill="none" stroke="#000000" points="2791.156,-978.9 3357.272,-978.9 "/>
<text text-anchor="start" x="2799.156" y="-962.3" font-family="Times,serif" font-size="14.00" fill="#000000">Private:</text>
<text text-anchor="start" x="2799.156" y="-945.5" font-family="Times,serif" font-size="14.00" fill="#000000"> &#160;&#160;&#160;_verifyCallResult(success: bool, returndata: bytes, errorMessage: string): bytes</text>
<text text-anchor="start" x="2799.156" y="-928.7" font-family="Times,serif" font-size="14.00" fill="#000000">Internal:</text>
<text text-anchor="start" x="2799.156" y="-911.9" font-family="Times,serif" font-size="14.00" fill="#000000"> &#160;&#160;&#160;isContract(account: address): bool</text>
<text text-anchor="start" x="2799.156" y="-895.1" font-family="Times,serif" font-size="14.00" fill="#000000"> &#160;&#160;&#160;sendValue(recipient: address, amount: uint256)</text>
<text text-anchor="start" x="2799.156" y="-878.3" font-family="Times,serif" font-size="14.00" fill="#000000"> &#160;&#160;&#160;functionCall(target: address, data: bytes): bytes</text>
<text text-anchor="start" x="2799.156" y="-861.5" font-family="Times,serif" font-size="14.00" fill="#000000"> &#160;&#160;&#160;functionCall(target: address, data: bytes, errorMessage: string): bytes</text>
<text text-anchor="start" x="2799.156" y="-844.7" font-family="Times,serif" font-size="14.00" fill="#000000"> &#160;&#160;&#160;functionCallWithValue(target: address, data: bytes, value: uint256): bytes</text>
<text text-anchor="start" x="2799.156" y="-827.9" font-family="Times,serif" font-size="14.00" fill="#000000"> &#160;&#160;&#160;functionCallWithValue(target: address, data: bytes, value: uint256, errorMessage: string): bytes</text>
<text text-anchor="start" x="2799.156" y="-811.1" font-family="Times,serif" font-size="14.00" fill="#000000"> &#160;&#160;&#160;functionStaticCall(target: address, data: bytes): bytes</text>
<text text-anchor="start" x="2799.156" y="-794.3" font-family="Times,serif" font-size="14.00" fill="#000000"> &#160;&#160;&#160;functionStaticCall(target: address, data: bytes, errorMessage: string): bytes</text>
<text text-anchor="start" x="2799.156" y="-777.5" font-family="Times,serif" font-size="14.00" fill="#000000"> &#160;&#160;&#160;functionDelegateCall(target: address, data: bytes): bytes</text>
<text text-anchor="start" x="2799.156" y="-760.7" font-family="Times,serif" font-size="14.00" fill="#000000"> &#160;&#160;&#160;functionDelegateCall(target: address, data: bytes, errorMessage: string): bytes</text>
</g>
<!-- 12 -->
<g id="node13" class="node">
<title>12</title>
<polygon fill="#f2f2f2" stroke="#000000" points="1173.1013,-.5 1173.1013,-242.9 1665.3267,-242.9 1665.3267,-.5 1173.1013,-.5"/>
<text text-anchor="middle" x="1419.214" y="-226.3" font-family="Times,serif" font-size="14.00" fill="#000000">&lt;&lt;Library&gt;&gt;</text>
<text text-anchor="middle" x="1419.214" y="-209.5" font-family="Times,serif" font-size="14.00" fill="#000000">ERC165Checker</text>
<polyline fill="none" stroke="#000000" points="1173.1013,-201.3 1665.3267,-201.3 "/>
<text text-anchor="start" x="1181.1013" y="-184.7" font-family="Times,serif" font-size="14.00" fill="#000000">Private:</text>
<text text-anchor="start" x="1181.1013" y="-167.9" font-family="Times,serif" font-size="14.00" fill="#000000"> &#160;&#160;_INTERFACE_ID_INVALID: bytes4</text>
<text text-anchor="start" x="1181.1013" y="-151.1" font-family="Times,serif" font-size="14.00" fill="#000000"> &#160;&#160;_INTERFACE_ID_ERC165: bytes4</text>
<polyline fill="none" stroke="#000000" points="1173.1013,-142.9 1665.3267,-142.9 "/>
<text text-anchor="start" x="1181.1013" y="-126.3" font-family="Times,serif" font-size="14.00" fill="#000000">Private:</text>
<text text-anchor="start" x="1181.1013" y="-109.5" font-family="Times,serif" font-size="14.00" fill="#000000"> &#160;&#160;&#160;_supportsERC165Interface(account: address, interfaceId: bytes4): bool</text>
<text text-anchor="start" x="1181.1013" y="-92.7" font-family="Times,serif" font-size="14.00" fill="#000000"> &#160;&#160;&#160;_callERC165SupportsInterface(account: address, interfaceId: bytes4): (bool, bool)</text>
<text text-anchor="start" x="1181.1013" y="-75.9" font-family="Times,serif" font-size="14.00" fill="#000000">Internal:</text>
<text text-anchor="start" x="1181.1013" y="-59.1" font-family="Times,serif" font-size="14.00" fill="#000000"> &#160;&#160;&#160;supportsERC165(account: address): bool</text>
<text text-anchor="start" x="1181.1013" y="-42.3" font-family="Times,serif" font-size="14.00" fill="#000000"> &#160;&#160;&#160;supportsInterface(account: address, interfaceId: bytes4): bool</text>
<text text-anchor="start" x="1181.1013" y="-25.5" font-family="Times,serif" font-size="14.00" fill="#000000"> &#160;&#160;&#160;getSupportedInterfaces(account: address, interfaceIds: bytes4[]): bool[]</text>
<text text-anchor="start" x="1181.1013" y="-8.7" font-family="Times,serif" font-size="14.00" fill="#000000"> &#160;&#160;&#160;supportsAllInterfaces(account: address, interfaceIds: bytes4[]): bool</text>
</g>
<!-- 13 -->
<g id="node14" class="node">
<title>13</title>
<polygon fill="#f2f2f2" stroke="#000000" points="1436.8025,-802.9 1436.8025,-994.9 1723.6255,-994.9 1723.6255,-802.9 1436.8025,-802.9"/>
<text text-anchor="middle" x="1580.214" y="-978.3" font-family="Times,serif" font-size="14.00" fill="#000000">&lt;&lt;Abstract&gt;&gt;</text>
<text text-anchor="middle" x="1580.214" y="-961.5" font-family="Times,serif" font-size="14.00" fill="#000000">ERC165</text>
<polyline fill="none" stroke="#000000" points="1436.8025,-953.3 1723.6255,-953.3 "/>
<text text-anchor="start" x="1444.8025" y="-936.7" font-family="Times,serif" font-size="14.00" fill="#000000">Private:</text>
<text text-anchor="start" x="1444.8025" y="-919.9" font-family="Times,serif" font-size="14.00" fill="#000000"> &#160;&#160;_INTERFACE_ID_ERC165: bytes4</text>
<text text-anchor="start" x="1444.8025" y="-903.1" font-family="Times,serif" font-size="14.00" fill="#000000"> &#160;&#160;_supportedInterfaces: mapping(bytes4=&gt;bool)</text>
<polyline fill="none" stroke="#000000" points="1436.8025,-894.9 1723.6255,-894.9 "/>
<text text-anchor="start" x="1444.8025" y="-878.3" font-family="Times,serif" font-size="14.00" fill="#000000">Internal:</text>
<text text-anchor="start" x="1444.8025" y="-861.5" font-family="Times,serif" font-size="14.00" fill="#000000"> &#160;&#160;&#160;_registerInterface(interfaceId: bytes4)</text>
<text text-anchor="start" x="1444.8025" y="-844.7" font-family="Times,serif" font-size="14.00" fill="#000000">Public:</text>
<text text-anchor="start" x="1444.8025" y="-827.9" font-family="Times,serif" font-size="14.00" fill="#000000"> &#160;&#160;&#160;constructor()</text>
<text text-anchor="start" x="1444.8025" y="-811.1" font-family="Times,serif" font-size="14.00" fill="#000000"> &#160;&#160;&#160;supportsInterface(interfaceId: bytes4): bool</text>
</g>
<!-- 13&#45;&gt;7 -->
<g id="edge11" class="edge">
<title>13&#45;&gt;7</title>
<path fill="none" stroke="#000000" stroke-dasharray="5,2" d="M1573.5447,-995.1533C1568.0405,-1074.5912 1560.3068,-1186.2055 1555.0463,-1262.1267"/>
<polygon fill="none" stroke="#000000" points="1544.5559,-1261.6271 1552.9569,-1292.2812 1565.5056,-1263.0787 1544.5559,-1261.6271"/>
</g>
<!-- 14 -->
<g id="node15" class="node">
<title>14</title>
<polygon fill="#f2f2f2" stroke="#000000" points="1059.3285,-279.9 1059.3285,-606.3 1623.0995,-606.3 1623.0995,-279.9 1059.3285,-279.9"/>
<text text-anchor="middle" x="1341.214" y="-589.7" font-family="Times,serif" font-size="14.00" fill="#000000">BEP20Operable</text>
<polyline fill="none" stroke="#000000" points="1059.3285,-581.5 1623.0995,-581.5 "/>
<text text-anchor="start" x="1067.3285" y="-564.9" font-family="Times,serif" font-size="14.00" fill="#000000">Private:</text>
<text text-anchor="start" x="1067.3285" y="-548.1" font-family="Times,serif" font-size="14.00" fill="#000000"> &#160;&#160;_ERC1363_RECEIVED: bytes4</text>
<text text-anchor="start" x="1067.3285" y="-531.3" font-family="Times,serif" font-size="14.00" fill="#000000"> &#160;&#160;_ERC1363_APPROVED: bytes4</text>
<text text-anchor="start" x="1067.3285" y="-514.5" font-family="Times,serif" font-size="14.00" fill="#000000">Internal:</text>
<text text-anchor="start" x="1067.3285" y="-497.7" font-family="Times,serif" font-size="14.00" fill="#000000"> &#160;&#160;_INTERFACE_ID_ERC1363_TRANSFER: bytes4</text>
<text text-anchor="start" x="1067.3285" y="-480.9" font-family="Times,serif" font-size="14.00" fill="#000000"> &#160;&#160;_INTERFACE_ID_ERC1363_APPROVE: bytes4</text>
<polyline fill="none" stroke="#000000" points="1059.3285,-472.7 1623.0995,-472.7 "/>
<text text-anchor="start" x="1067.3285" y="-456.1" font-family="Times,serif" font-size="14.00" fill="#000000">Internal:</text>
<text text-anchor="start" x="1067.3285" y="-439.3" font-family="Times,serif" font-size="14.00" fill="#000000"> &#160;&#160;&#160;_checkAndCallTransfer(sender: address, recipient: address, amount: uint256, data: bytes): bool</text>
<text text-anchor="start" x="1067.3285" y="-422.5" font-family="Times,serif" font-size="14.00" fill="#000000"> &#160;&#160;&#160;_checkAndCallApprove(spender: address, amount: uint256, data: bytes): bool</text>
<text text-anchor="start" x="1067.3285" y="-405.7" font-family="Times,serif" font-size="14.00" fill="#000000">Public:</text>
<text text-anchor="start" x="1067.3285" y="-388.9" font-family="Times,serif" font-size="14.00" fill="#000000"> &#160;&#160;&#160;constructor(name: string, symbol: string)</text>
<text text-anchor="start" x="1067.3285" y="-372.1" font-family="Times,serif" font-size="14.00" fill="#000000"> &#160;&#160;&#160;transferAndCall(recipient: address, amount: uint256): bool</text>
<text text-anchor="start" x="1067.3285" y="-355.3" font-family="Times,serif" font-size="14.00" fill="#000000"> &#160;&#160;&#160;transferAndCall(recipient: address, amount: uint256, data: bytes): bool</text>
<text text-anchor="start" x="1067.3285" y="-338.5" font-family="Times,serif" font-size="14.00" fill="#000000"> &#160;&#160;&#160;transferFromAndCall(sender: address, recipient: address, amount: uint256): bool</text>
<text text-anchor="start" x="1067.3285" y="-321.7" font-family="Times,serif" font-size="14.00" fill="#000000"> &#160;&#160;&#160;transferFromAndCall(sender: address, recipient: address, amount: uint256, data: bytes): bool</text>
<text text-anchor="start" x="1067.3285" y="-304.9" font-family="Times,serif" font-size="14.00" fill="#000000"> &#160;&#160;&#160;approveAndCall(spender: address, amount: uint256): bool</text>
<text text-anchor="start" x="1067.3285" y="-288.1" font-family="Times,serif" font-size="14.00" fill="#000000"> &#160;&#160;&#160;approveAndCall(spender: address, amount: uint256, data: bytes): bool</text>
</g>
<!-- 14&#45;&gt;4 -->
<g id="edge12" class="edge">
<title>14&#45;&gt;4</title>
<path fill="none" stroke="#000000" d="M1059.2202,-603.454C1056.2137,-604.597 1053.2111,-605.7129 1050.214,-606.8 967.775,-636.7013 935.4583,-605.2418 856.214,-642.8 835.7598,-652.4944 815.5638,-663.9201 795.8969,-676.473"/>
<polygon fill="none" stroke="#000000" points="789.922,-667.8372 770.8318,-693.2501 801.603,-685.2886 789.922,-667.8372"/>
</g>
<!-- 14&#45;&gt;8 -->
<g id="edge13" class="edge">
<title>14&#45;&gt;8</title>
<path fill="none" stroke="#000000" stroke-dasharray="5,2" d="M1269.9325,-606.3668C1245.7019,-661.8659 1219.0374,-722.9398 1196.3678,-774.8634"/>
<polygon fill="none" stroke="#000000" points="1186.6063,-770.9798 1184.2254,-802.675 1205.852,-779.3825 1186.6063,-770.9798"/>
</g>
<!-- 14&#45;&gt;9 -->
<g id="edge16" class="edge">
<title>14&#45;&gt;9</title>
<path fill="none" stroke="#000000" stroke-dasharray="5,2" d="M1623.4888,-602.7673C1626.4058,-604.1292 1629.3148,-605.4739 1632.214,-606.8 1675.1705,-626.4482 1691.6274,-618.6331 1732.214,-642.8 1822.1336,-696.3417 1909.5138,-780.3028 1963.7668,-837.3756"/>
<polygon fill="#000000" stroke="#000000" points="1961.4595,-840.03 1970.8712,-844.8952 1966.5477,-835.2226 1961.4595,-840.03"/>
</g>
<!-- 14&#45;&gt;10 -->
<g id="edge17" class="edge">
<title>14&#45;&gt;10</title>
<path fill="none" stroke="#000000" stroke-dasharray="5,2" d="M1623.441,-604.1513C1626.367,-605.0671 1629.2918,-605.9505 1632.214,-606.8 1776.2435,-648.6676 2170.3618,-579.2267 2306.214,-642.8 2394.6865,-684.2015 2465.9785,-774.7563 2506.7278,-836.3043"/>
<polygon fill="#000000" stroke="#000000" points="2503.8725,-838.333 2512.2736,-844.7883 2509.7317,-834.5029 2503.8725,-838.333"/>
</g>
<!-- 14&#45;&gt;11 -->
<g id="edge15" class="edge">
<title>14&#45;&gt;11</title>
<path fill="none" stroke="#000000" stroke-dasharray="5,2" d="M1623.4145,-604.2443C1626.349,-605.1303 1629.2826,-605.9828 1632.214,-606.8 1755.3593,-641.1279 2663.2877,-595.8991 2782.214,-642.8 2839.5544,-665.4133 2893.1759,-704.5307 2938.4233,-745.4825"/>
<polygon fill="#000000" stroke="#000000" points="2936.1645,-748.16 2945.9014,-752.3365 2940.8942,-742.9995 2936.1645,-748.16"/>
</g>
<!-- 14&#45;&gt;13 -->
<g id="edge14" class="edge">
<title>14&#45;&gt;13</title>
<path fill="none" stroke="#000000" d="M1426.8234,-606.3668C1456.1266,-662.2513 1488.3937,-723.7883 1515.7416,-775.9438"/>
<polygon fill="none" stroke="#000000" points="1506.5274,-780.982 1529.7582,-802.675 1525.1257,-771.2299 1506.5274,-780.982"/>
</g>
<!-- 15 -->
<g id="node16" class="node">
<title>15</title>
<polygon fill="#f2f2f2" stroke="#000000" points="659.4797,-397.5 659.4797,-488.7 1040.9483,-488.7 1040.9483,-397.5 659.4797,-397.5"/>
<text text-anchor="middle" x="850.214" y="-472.1" font-family="Times,serif" font-size="14.00" fill="#000000">TokenRecover</text>
<polyline fill="none" stroke="#000000" points="659.4797,-463.9 1040.9483,-463.9 "/>
<text text-anchor="middle" x="850.214" y="-447.3" font-family="Times,serif" font-size="14.00" fill="#000000"> </text>
<polyline fill="none" stroke="#000000" points="659.4797,-439.1 1040.9483,-439.1 "/>
<text text-anchor="start" x="667.4797" y="-422.5" font-family="Times,serif" font-size="14.00" fill="#000000">Public:</text>
<text text-anchor="start" x="667.4797" y="-405.7" font-family="Times,serif" font-size="14.00" fill="#000000"> &#160;&#160;&#160;recoverBEP20(tokenAddress: address, tokenAmount: uint256)</text>
</g>
<!-- 15&#45;&gt;1 -->
<g id="edge18" class="edge">
<title>15&#45;&gt;1</title>
<path fill="none" stroke="#000000" d="M843.3325,-489.0234C837.4359,-529.4475 829.0027,-589.9379 823.214,-642.8 798.3465,-869.8877 851.6913,-938.0248 780.214,-1155 773.4779,-1175.4481 764.1645,-1195.9678 753.6976,-1215.5783"/>
<polygon fill="none" stroke="#000000" points="744.5639,-1210.399 738.8433,-1241.6645 762.8127,-1220.7905 744.5639,-1210.399"/>
</g>
<!-- 15&#45;&gt;3 -->
<g id="edge19" class="edge">
<title>15&#45;&gt;3</title>
<path fill="none" stroke="#000000" stroke-dasharray="5,2" d="M845.0374,-488.8167C830.1941,-627.4355 792.49,-1040.5276 856.214,-1155 870.7877,-1181.1799 888.1449,-1174.5891 913.214,-1191 913.506,-1191.1912 913.7982,-1191.3825 914.0906,-1191.574"/>
<polygon fill="#000000" stroke="#000000" points="912.3375,-1194.6098 922.6182,-1197.1707 916.1784,-1188.7576 912.3375,-1194.6098"/>
</g>
<!-- 16 -->
<g id="node17" class="node">
<title>16</title>
<polygon fill="#f2f2f2" stroke="#000000" points="1683.5246,-67.7 1683.5246,-175.7 1858.9034,-175.7 1858.9034,-67.7 1683.5246,-67.7"/>
<text text-anchor="middle" x="1771.214" y="-159.1" font-family="Times,serif" font-size="14.00" fill="#000000">&lt;&lt;Interface&gt;&gt;</text>
<text text-anchor="middle" x="1771.214" y="-142.3" font-family="Times,serif" font-size="14.00" fill="#000000">IPayable</text>
<polyline fill="none" stroke="#000000" points="1683.5246,-134.1 1858.9034,-134.1 "/>
<text text-anchor="middle" x="1771.214" y="-117.5" font-family="Times,serif" font-size="14.00" fill="#000000"> </text>
<polyline fill="none" stroke="#000000" points="1683.5246,-109.3 1858.9034,-109.3 "/>
<text text-anchor="start" x="1691.5246" y="-92.7" font-family="Times,serif" font-size="14.00" fill="#000000">External:</text>
<text text-anchor="start" x="1691.5246" y="-75.9" font-family="Times,serif" font-size="14.00" fill="#000000"> &#160;&#160;&#160;&#160;pay(serviceName: string)</text>
</g>
<!-- 17 -->
<g id="node18" class="node">
<title>17</title>
<polygon fill="#f2f2f2" stroke="#000000" points="1641.1739,-389.1 1641.1739,-497.1 1957.2541,-497.1 1957.2541,-389.1 1641.1739,-389.1"/>
<text text-anchor="middle" x="1799.214" y="-480.5" font-family="Times,serif" font-size="14.00" fill="#000000">&lt;&lt;Abstract&gt;&gt;</text>
<text text-anchor="middle" x="1799.214" y="-463.7" font-family="Times,serif" font-size="14.00" fill="#000000">ServicePayer</text>
<polyline fill="none" stroke="#000000" points="1641.1739,-455.5 1957.2541,-455.5 "/>
<text text-anchor="middle" x="1799.214" y="-438.9" font-family="Times,serif" font-size="14.00" fill="#000000"> </text>
<polyline fill="none" stroke="#000000" points="1641.1739,-430.7 1957.2541,-430.7 "/>
<text text-anchor="start" x="1649.1739" y="-414.1" font-family="Times,serif" font-size="14.00" fill="#000000">Public:</text>
<text text-anchor="start" x="1649.1739" y="-397.3" font-family="Times,serif" font-size="14.00" fill="#000000"> &#160;&#160;&#160;constructor(receiver: address, serviceName: string)</text>
</g>
<!-- 18 -->
<g id="node19" class="node">
<title>18</title>
<polygon fill="#f2f2f2" stroke="#000000" points="544.9842,-50.9 544.9842,-192.5 1155.4438,-192.5 1155.4438,-50.9 544.9842,-50.9"/>
<text text-anchor="middle" x="850.214" y="-175.9" font-family="Times,serif" font-size="14.00" fill="#000000">AmazingBEP20</text>
<polyline fill="none" stroke="#000000" points="544.9842,-167.7 1155.4438,-167.7 "/>
<text text-anchor="middle" x="850.214" y="-151.1" font-family="Times,serif" font-size="14.00" fill="#000000"> </text>
<polyline fill="none" stroke="#000000" points="544.9842,-142.9 1155.4438,-142.9 "/>
<text text-anchor="start" x="552.9842" y="-126.3" font-family="Times,serif" font-size="14.00" fill="#000000">Internal:</text>
<text text-anchor="start" x="552.9842" y="-109.5" font-family="Times,serif" font-size="14.00" fill="#000000"> &#160;&#160;&#160;_mint(account: address, amount: uint256)</text>
<text text-anchor="start" x="552.9842" y="-92.7" font-family="Times,serif" font-size="14.00" fill="#000000"> &#160;&#160;&#160;_finishMinting()</text>
<text text-anchor="start" x="552.9842" y="-75.9" font-family="Times,serif" font-size="14.00" fill="#000000">Public:</text>
<text text-anchor="start" x="552.9842" y="-59.1" font-family="Times,serif" font-size="14.00" fill="#000000"> &#160;&#160;&#160;constructor(name: string, symbol: string, decimals: uint8, initialBalance: uint256, feeReceiver: address)</text>
</g>
<!-- 18&#45;&gt;5 -->
<g id="edge20" class="edge">
<title>18&#45;&gt;5</title>
<path fill="none" stroke="#000000" d="M751.9885,-192.6707C718.4537,-218.56 681.5366,-248.9774 650.214,-279.4 640.9656,-288.3827 631.7008,-297.9471 622.5948,-307.7692"/>
<polygon fill="none" stroke="#000000" points="614.6123,-300.9429 602.3583,-330.2702 630.2264,-314.9857 614.6123,-300.9429"/>
</g>
<!-- 18&#45;&gt;6 -->
<g id="edge21" class="edge">
<title>18&#45;&gt;6</title>
<path fill="none" stroke="#000000" d="M559.5751,-192.5399C496.0343,-214.8978 431.123,-243.446 375.214,-279.4 342.8492,-300.2132 312.7395,-329.483 287.9985,-357.5278"/>
<polygon fill="none" stroke="#000000" points="279.8659,-350.8841 268.5471,-380.5849 295.9171,-364.4252 279.8659,-350.8841"/>
</g>
<!-- 18&#45;&gt;14 -->
<g id="edge22" class="edge">
<title>18&#45;&gt;14</title>
<path fill="none" stroke="#000000" d="M958.5739,-192.6305C991.1228,-213.9364 1028.4072,-238.3421 1066.6457,-263.3724"/>
<polygon fill="none" stroke="#000000" points="1061.0201,-272.2395 1091.8714,-279.8847 1072.5215,-254.669 1061.0201,-272.2395"/>
</g>
<!-- 18&#45;&gt;15 -->
<g id="edge23" class="edge">
<title>18&#45;&gt;15</title>
<path fill="none" stroke="#000000" d="M850.214,-192.6305C850.214,-244.2212 850.214,-313.9864 850.214,-366.7852"/>
<polygon fill="none" stroke="#000000" points="839.7141,-367.1533 850.214,-397.1533 860.7141,-367.1533 839.7141,-367.1533"/>
</g>
<!-- 18&#45;&gt;17 -->
<g id="edge24" class="edge">
<title>18&#45;&gt;17</title>
<path fill="none" stroke="#000000" d="M1006.318,-192.5628C1055.8542,-212.2161 1111.476,-231.4259 1164.214,-243.4 1265.9324,-266.4949 1537.2333,-236.2879 1632.214,-279.4 1674.457,-298.5743 1712.2609,-333.2454 1741.1723,-365.7592"/>
<polygon fill="none" stroke="#000000" points="1733.2279,-372.626 1760.5891,-388.8006 1749.2864,-359.0937 1733.2279,-372.626"/>
</g>
</g>
</svg>
